<svg xmlns="http://www.w3.org/2000/svg" viewBox="0 0 256 256">
  <defs>
    <linearGradient id="bg" x1="0" y1="0" x2="1" y2="1">
      <stop offset="0%" stop-color="#0f172a"/>
      <stop offset="100%" stop-color="#111827"/>
    </linearGradient>
    <linearGradient id="bar" x1="0" y1="1" x2="0" y2="0">
      <stop offset="0%" stop-color="#22d3ee"/>
      <stop offset="55%" stop-color="#84cc16"/>
      <stop offset="80%" stop-color="#facc15"/>
      <stop offset="100%" stop-color="#fb7185"/>
    </linearGradient>
  </defs>
  <rect x="12" y="12" width="232" height="232" rx="44" fill="url(#bg)"/>
  <rect x="31" y="31" width="194" height="194" rx="28" fill="none" stroke="#334155" stroke-width="4"/>
  <g fill="#1e293b">
    <rect x="44" y="60" width="168" height="2" rx="1"/>
    <rect x="44" y="98" width="168" height="2" rx="1"/>
    <rect x="44" y="136" width="168" height="2" rx="1"/>
    <rect x="44" y="174" width="168" height="2" rx="1"/>
  </g>
  <g fill="url(#bar)">
    <rect x="52" y="132" width="14" height="56" rx="7"/>
    <rect x="73" y="112" width="14" height="76" rx="7"/>
    <rect x="94" y="84" width="14" height="104" rx="7"/>
    <rect x="115" y="60" width="14" height="128" rx="7"/>
    <rect x="136" y="74" width="14" height="114" rx="7"/>
    <rect x="157" y="100" width="14" height="88" rx="7"/>
    <rect x="178" y="124" width="14" height="64" rx="7"/>
  </g>
</svg>
